<svg xmlns="http://www.w3.org/2000/svg" xmlns:xlink="http://www.w3.org/1999/xlink" width="600" height="400" viewBox="0 0 2400 1600">
<defs>
  <clipPath id="clip600">
    <rect x="0" y="0" width="2400" height="1600"></rect>
  </clipPath>
</defs>
<path clip-path="url(#clip600)" d="
M0 1600 L2400 1600 L2400 0 L0 0  Z
  " fill="#ffffff" fill-rule="evenodd" fill-opacity="1"></path>
<defs>
  <clipPath id="clip601">
    <rect x="480" y="0" width="1681" height="1600"></rect>
  </clipPath>
</defs>
<path clip-path="url(#clip600)" d="
M313.373 1474.16 L2352.76 1474.16 L2352.76 47.2441 L313.373 47.2441  Z
  " fill="#ffffff" fill-rule="evenodd" fill-opacity="1"></path>
<defs>
  <clipPath id="clip602">
    <rect x="313" y="47" width="2040" height="1428"></rect>
  </clipPath>
</defs>
<polyline clip-path="url(#clip602)" style="stroke:#000000; stroke-linecap:round; stroke-linejoin:round; stroke-width:2; stroke-opacity:0.1; fill:none" points="
  371.093,1474.16 371.093,47.2441 
  "></polyline>
<polyline clip-path="url(#clip602)" style="stroke:#000000; stroke-linecap:round; stroke-linejoin:round; stroke-width:2; stroke-opacity:0.1; fill:none" points="
  852.079,1474.16 852.079,47.2441 
  "></polyline>
<polyline clip-path="url(#clip602)" style="stroke:#000000; stroke-linecap:round; stroke-linejoin:round; stroke-width:2; stroke-opacity:0.1; fill:none" points="
  1333.06,1474.16 1333.06,47.2441 
  "></polyline>
<polyline clip-path="url(#clip602)" style="stroke:#000000; stroke-linecap:round; stroke-linejoin:round; stroke-width:2; stroke-opacity:0.1; fill:none" points="
  1814.05,1474.16 1814.05,47.2441 
  "></polyline>
<polyline clip-path="url(#clip602)" style="stroke:#000000; stroke-linecap:round; stroke-linejoin:round; stroke-width:2; stroke-opacity:0.1; fill:none" points="
  2295.04,1474.16 2295.04,47.2441 
  "></polyline>
<polyline clip-path="url(#clip600)" style="stroke:#000000; stroke-linecap:round; stroke-linejoin:round; stroke-width:4; stroke-opacity:1; fill:none" points="
  313.373,1474.16 2352.76,1474.16 
  "></polyline>
<polyline clip-path="url(#clip600)" style="stroke:#000000; stroke-linecap:round; stroke-linejoin:round; stroke-width:4; stroke-opacity:1; fill:none" points="
  371.093,1474.16 371.093,1455.27 
  "></polyline>
<polyline clip-path="url(#clip600)" style="stroke:#000000; stroke-linecap:round; stroke-linejoin:round; stroke-width:4; stroke-opacity:1; fill:none" points="
  852.079,1474.16 852.079,1455.27 
  "></polyline>
<polyline clip-path="url(#clip600)" style="stroke:#000000; stroke-linecap:round; stroke-linejoin:round; stroke-width:4; stroke-opacity:1; fill:none" points="
  1333.06,1474.16 1333.06,1455.27 
  "></polyline>
<polyline clip-path="url(#clip600)" style="stroke:#000000; stroke-linecap:round; stroke-linejoin:round; stroke-width:4; stroke-opacity:1; fill:none" points="
  1814.05,1474.16 1814.05,1455.27 
  "></polyline>
<polyline clip-path="url(#clip600)" style="stroke:#000000; stroke-linecap:round; stroke-linejoin:round; stroke-width:4; stroke-opacity:1; fill:none" points="
  2295.04,1474.16 2295.04,1455.27 
  "></polyline>
<path clip-path="url(#clip600)" d="M371.093 1505.08 Q367.482 1505.08 365.654 1508.65 Q363.848 1512.19 363.848 1519.32 Q363.848 1526.43 365.654 1529.99 Q367.482 1533.53 371.093 1533.53 Q374.728 1533.53 376.533 1529.99 Q378.362 1526.43 378.362 1519.32 Q378.362 1512.19 376.533 1508.65 Q374.728 1505.08 371.093 1505.08 M371.093 1501.38 Q376.904 1501.38 379.959 1505.99 Q383.038 1510.57 383.038 1519.32 Q383.038 1528.05 379.959 1532.65 Q376.904 1537.24 371.093 1537.24 Q365.283 1537.24 362.205 1532.65 Q359.149 1528.05 359.149 1519.32 Q359.149 1510.57 362.205 1505.99 Q365.283 1501.38 371.093 1501.38 Z" fill="#000000" fill-rule="evenodd" fill-opacity="1"></path><path clip-path="url(#clip600)" d="M763.599 1548.29 L779.918 1548.29 L779.918 1552.22 L757.974 1552.22 L757.974 1548.29 Q760.636 1545.53 765.219 1540.91 Q769.826 1536.25 771.006 1534.91 Q773.252 1532.39 774.131 1530.65 Q775.034 1528.89 775.034 1527.2 Q775.034 1524.45 773.09 1522.71 Q771.169 1520.97 768.067 1520.97 Q765.868 1520.97 763.414 1521.74 Q760.983 1522.5 758.206 1524.05 L758.206 1519.33 Q761.03 1518.2 763.483 1517.62 Q765.937 1517.04 767.974 1517.04 Q773.344 1517.04 776.539 1519.72 Q779.733 1522.41 779.733 1526.9 Q779.733 1529.03 778.923 1530.95 Q778.136 1532.85 776.03 1535.44 Q775.451 1536.11 772.349 1539.33 Q769.247 1542.53 763.599 1548.29 Z" fill="#000000" fill-rule="evenodd" fill-opacity="1"></path><path clip-path="url(#clip600)" d="M789.733 1546.35 L794.617 1546.35 L794.617 1552.22 L789.733 1552.22 L789.733 1546.35 Z" fill="#000000" fill-rule="evenodd" fill-opacity="1"></path><path clip-path="url(#clip600)" d="M814.803 1520.74 Q811.191 1520.74 809.363 1524.31 Q807.557 1527.85 807.557 1534.98 Q807.557 1542.09 809.363 1545.65 Q811.191 1549.19 814.803 1549.19 Q818.437 1549.19 820.242 1545.65 Q822.071 1542.09 822.071 1534.98 Q822.071 1527.85 820.242 1524.31 Q818.437 1520.74 814.803 1520.74 M814.803 1517.04 Q820.613 1517.04 823.668 1521.65 Q826.747 1526.23 826.747 1534.98 Q826.747 1543.71 823.668 1548.31 Q820.613 1552.9 814.803 1552.9 Q808.992 1552.9 805.914 1548.31 Q802.858 1543.71 802.858 1534.98 Q802.858 1526.23 805.914 1521.65 Q808.992 1517.04 814.803 1517.04 Z" fill="#000000" fill-rule="evenodd" fill-opacity="1"></path><path clip-path="url(#clip600)" d="M863.136 1526.76 L852.557 1537.39 L863.136 1547.97 L860.381 1550.77 L849.756 1540.14 L839.131 1550.77 L836.4 1547.97 L846.955 1537.39 L836.4 1526.76 L839.131 1523.96 L849.756 1534.59 L860.381 1523.96 L863.136 1526.76 Z" fill="#000000" fill-rule="evenodd" fill-opacity="1"></path><path clip-path="url(#clip600)" d="M875.497 1548.29 L883.135 1548.29 L883.135 1521.92 L874.825 1523.59 L874.825 1519.33 L883.089 1517.66 L887.765 1517.66 L887.765 1548.29 L895.404 1548.29 L895.404 1552.22 L875.497 1552.22 L875.497 1548.29 Z" fill="#000000" fill-rule="evenodd" fill-opacity="1"></path><path clip-path="url(#clip600)" d="M914.848 1520.74 Q911.237 1520.74 909.409 1524.31 Q907.603 1527.85 907.603 1534.98 Q907.603 1542.09 909.409 1545.65 Q911.237 1549.19 914.848 1549.19 Q918.483 1549.19 920.288 1545.65 Q922.117 1542.09 922.117 1534.98 Q922.117 1527.85 920.288 1524.31 Q918.483 1520.74 914.848 1520.74 M914.848 1517.04 Q920.658 1517.04 923.714 1521.65 Q926.793 1526.23 926.793 1534.98 Q926.793 1543.71 923.714 1548.31 Q920.658 1552.9 914.848 1552.9 Q909.038 1552.9 905.959 1548.31 Q902.904 1543.71 902.904 1534.98 Q902.904 1526.23 905.959 1521.65 Q909.038 1517.04 914.848 1517.04 Z" fill="#000000" fill-rule="evenodd" fill-opacity="1"></path><path clip-path="url(#clip600)" d="M936.817 1509.26 Q934.259 1509.26 932.755 1511.01 Q931.269 1512.76 931.269 1515.81 Q931.269 1518.83 932.755 1520.6 Q934.259 1522.35 936.817 1522.35 Q939.375 1522.35 940.861 1520.6 Q942.366 1518.83 942.366 1515.81 Q942.366 1512.76 940.861 1511.01 Q939.375 1509.26 936.817 1509.26 M944.359 1497.35 L944.359 1500.82 Q942.93 1500.14 941.463 1499.78 Q940.015 1499.42 938.585 1499.42 Q934.824 1499.42 932.83 1501.96 Q930.855 1504.5 930.573 1509.64 Q931.683 1508 933.357 1507.13 Q935.03 1506.25 937.043 1506.25 Q941.275 1506.25 943.72 1508.83 Q946.183 1511.39 946.183 1515.81 Q946.183 1520.13 943.626 1522.75 Q941.068 1525.36 936.817 1525.36 Q931.946 1525.36 929.369 1521.64 Q926.793 1517.89 926.793 1510.8 Q926.793 1504.14 929.952 1500.19 Q933.112 1496.23 938.435 1496.23 Q939.864 1496.23 941.312 1496.51 Q942.779 1496.79 944.359 1497.35 Z" fill="#000000" fill-rule="evenodd" fill-opacity="1"></path><path clip-path="url(#clip600)" d="M1253.98 1521.74 L1242.18 1540.19 L1253.98 1540.19 L1253.98 1521.74 M1252.76 1517.66 L1258.64 1517.66 L1258.64 1540.19 L1263.57 1540.19 L1263.57 1544.08 L1258.64 1544.08 L1258.64 1552.22 L1253.98 1552.22 L1253.98 1544.08 L1238.38 1544.08 L1238.38 1539.56 L1252.76 1517.66 Z" fill="#000000" fill-rule="evenodd" fill-opacity="1"></path><path clip-path="url(#clip600)" d="M1271.3 1546.35 L1276.18 1546.35 L1276.18 1552.22 L1271.3 1552.22 L1271.3 1546.35 Z" fill="#000000" fill-rule="evenodd" fill-opacity="1"></path><path clip-path="url(#clip600)" d="M1296.37 1520.74 Q1292.76 1520.74 1290.93 1524.31 Q1289.12 1527.85 1289.12 1534.98 Q1289.12 1542.09 1290.93 1545.65 Q1292.76 1549.19 1296.37 1549.19 Q1300 1549.19 1301.81 1545.65 Q1303.64 1542.09 1303.64 1534.98 Q1303.64 1527.85 1301.81 1524.31 Q1300 1520.74 1296.37 1520.74 M1296.37 1517.04 Q1302.18 1517.04 1305.23 1521.65 Q1308.31 1526.23 1308.31 1534.98 Q1308.31 1543.71 1305.23 1548.31 Q1302.18 1552.9 1296.37 1552.9 Q1290.56 1552.9 1287.48 1548.31 Q1284.42 1543.71 1284.42 1534.98 Q1284.42 1526.23 1287.48 1521.65 Q1290.56 1517.04 1296.37 1517.04 Z" fill="#000000" fill-rule="evenodd" fill-opacity="1"></path><path clip-path="url(#clip600)" d="M1344.7 1526.76 L1334.12 1537.39 L1344.7 1547.97 L1341.95 1550.77 L1331.32 1540.14 L1320.7 1550.77 L1317.96 1547.97 L1328.52 1537.39 L1317.96 1526.76 L1320.7 1523.96 L1331.32 1534.59 L1341.95 1523.96 L1344.7 1526.76 Z" fill="#000000" fill-rule="evenodd" fill-opacity="1"></path><path clip-path="url(#clip600)" d="M1357.06 1548.29 L1364.7 1548.29 L1364.7 1521.92 L1356.39 1523.59 L1356.39 1519.33 L1364.65 1517.66 L1369.33 1517.66 L1369.33 1548.29 L1376.97 1548.29 L1376.97 1552.22 L1357.06 1552.22 L1357.06 1548.29 Z" fill="#000000" fill-rule="evenodd" fill-opacity="1"></path><path clip-path="url(#clip600)" d="M1396.41 1520.74 Q1392.8 1520.74 1390.97 1524.31 Q1389.17 1527.85 1389.17 1534.98 Q1389.17 1542.09 1390.97 1545.65 Q1392.8 1549.19 1396.41 1549.19 Q1400.05 1549.19 1401.85 1545.65 Q1403.68 1542.09 1403.68 1534.98 Q1403.68 1527.85 1401.85 1524.31 Q1400.05 1520.74 1396.41 1520.74 M1396.41 1517.04 Q1402.22 1517.04 1405.28 1521.65 Q1408.36 1526.23 1408.36 1534.98 Q1408.36 1543.71 1405.28 1548.31 Q1402.22 1552.9 1396.41 1552.9 Q1390.6 1552.9 1387.52 1548.31 Q1384.47 1543.71 1384.47 1534.98 Q1384.47 1526.23 1387.52 1521.65 Q1390.6 1517.04 1396.41 1517.04 Z" fill="#000000" fill-rule="evenodd" fill-opacity="1"></path><path clip-path="url(#clip600)" d="M1418.38 1509.26 Q1415.82 1509.26 1414.32 1511.01 Q1412.83 1512.76 1412.83 1515.81 Q1412.83 1518.83 1414.32 1520.6 Q1415.82 1522.35 1418.38 1522.35 Q1420.94 1522.35 1422.43 1520.6 Q1423.93 1518.83 1423.93 1515.81 Q1423.93 1512.76 1422.43 1511.01 Q1420.94 1509.26 1418.38 1509.26 M1425.92 1497.35 L1425.92 1500.82 Q1424.49 1500.14 1423.03 1499.78 Q1421.58 1499.42 1420.15 1499.42 Q1416.39 1499.42 1414.39 1501.96 Q1412.42 1504.5 1412.14 1509.64 Q1413.25 1508 1414.92 1507.13 Q1416.59 1506.25 1418.61 1506.25 Q1422.84 1506.25 1425.28 1508.83 Q1427.75 1511.39 1427.75 1515.81 Q1427.75 1520.13 1425.19 1522.75 Q1422.63 1525.36 1418.38 1525.36 Q1413.51 1525.36 1410.93 1521.64 Q1408.36 1517.89 1408.36 1510.8 Q1408.36 1504.14 1411.52 1500.19 Q1414.68 1496.23 1420 1496.23 Q1421.43 1496.23 1422.88 1496.51 Q1424.34 1496.79 1425.92 1497.35 Z" fill="#000000" fill-rule="evenodd" fill-opacity="1"></path><path clip-path="url(#clip600)" d="M1732.2 1533.08 Q1729.05 1533.08 1727.2 1535.23 Q1725.37 1537.39 1725.37 1541.14 Q1725.37 1544.86 1727.2 1547.04 Q1729.05 1549.19 1732.2 1549.19 Q1735.35 1549.19 1737.18 1547.04 Q1739.03 1544.86 1739.03 1541.14 Q1739.03 1537.39 1737.18 1535.23 Q1735.35 1533.08 1732.2 1533.08 M1741.48 1518.43 L1741.48 1522.69 Q1739.72 1521.85 1737.92 1521.41 Q1736.14 1520.97 1734.38 1520.97 Q1729.75 1520.97 1727.29 1524.1 Q1724.86 1527.22 1724.52 1533.54 Q1725.88 1531.53 1727.94 1530.47 Q1730 1529.38 1732.48 1529.38 Q1737.69 1529.38 1740.7 1532.55 Q1743.73 1535.7 1743.73 1541.14 Q1743.73 1546.46 1740.58 1549.68 Q1737.43 1552.9 1732.2 1552.9 Q1726.21 1552.9 1723.04 1548.31 Q1719.86 1543.71 1719.86 1534.98 Q1719.86 1526.78 1723.75 1521.92 Q1727.64 1517.04 1734.19 1517.04 Q1735.95 1517.04 1737.73 1517.39 Q1739.54 1517.73 1741.48 1518.43 Z" fill="#000000" fill-rule="evenodd" fill-opacity="1"></path><path clip-path="url(#clip600)" d="M1751.79 1546.35 L1756.67 1546.35 L1756.67 1552.22 L1751.79 1552.22 L1751.79 1546.35 Z" fill="#000000" fill-rule="evenodd" fill-opacity="1"></path><path clip-path="url(#clip600)" d="M1776.85 1520.74 Q1773.24 1520.74 1771.41 1524.31 Q1769.61 1527.85 1769.61 1534.98 Q1769.61 1542.09 1771.41 1545.65 Q1773.24 1549.19 1776.85 1549.19 Q1780.49 1549.19 1782.29 1545.65 Q1784.12 1542.09 1784.12 1534.98 Q1784.12 1527.85 1782.29 1524.31 Q1780.49 1520.74 1776.85 1520.74 M1776.85 1517.04 Q1782.66 1517.04 1785.72 1521.65 Q1788.8 1526.23 1788.8 1534.98 Q1788.8 1543.71 1785.72 1548.31 Q1782.66 1552.9 1776.85 1552.9 Q1771.04 1552.9 1767.97 1548.31 Q1764.91 1543.71 1764.91 1534.98 Q1764.91 1526.23 1767.97 1521.65 Q1771.04 1517.04 1776.85 1517.04 Z" fill="#000000" fill-rule="evenodd" fill-opacity="1"></path><path clip-path="url(#clip600)" d="M1825.19 1526.76 L1814.61 1537.39 L1825.19 1547.97 L1822.43 1550.77 L1811.81 1540.14 L1801.18 1550.77 L1798.45 1547.97 L1809.01 1537.39 L1798.45 1526.76 L1801.18 1523.96 L1811.81 1534.59 L1822.43 1523.96 L1825.19 1526.76 Z" fill="#000000" fill-rule="evenodd" fill-opacity="1"></path><path clip-path="url(#clip600)" d="M1837.55 1548.29 L1845.19 1548.29 L1845.19 1521.92 L1836.88 1523.59 L1836.88 1519.33 L1845.14 1517.66 L1849.82 1517.66 L1849.82 1548.29 L1857.46 1548.29 L1857.46 1552.22 L1837.55 1552.22 L1837.55 1548.29 Z" fill="#000000" fill-rule="evenodd" fill-opacity="1"></path><path clip-path="url(#clip600)" d="M1876.9 1520.74 Q1873.29 1520.74 1871.46 1524.31 Q1869.65 1527.85 1869.65 1534.98 Q1869.65 1542.09 1871.46 1545.65 Q1873.29 1549.19 1876.9 1549.19 Q1880.53 1549.19 1882.34 1545.65 Q1884.17 1542.09 1884.17 1534.98 Q1884.17 1527.85 1882.34 1524.31 Q1880.53 1520.74 1876.9 1520.74 M1876.9 1517.04 Q1882.71 1517.04 1885.77 1521.65 Q1888.84 1526.23 1888.84 1534.98 Q1888.84 1543.71 1885.77 1548.31 Q1882.71 1552.9 1876.9 1552.9 Q1871.09 1552.9 1868.01 1548.31 Q1864.96 1543.71 1864.96 1534.98 Q1864.96 1526.23 1868.01 1521.65 Q1871.09 1517.04 1876.9 1517.04 Z" fill="#000000" fill-rule="evenodd" fill-opacity="1"></path><path clip-path="url(#clip600)" d="M1898.87 1509.26 Q1896.31 1509.26 1894.81 1511.01 Q1893.32 1512.76 1893.32 1515.81 Q1893.32 1518.83 1894.81 1520.6 Q1896.31 1522.35 1898.87 1522.35 Q1901.43 1522.35 1902.91 1520.6 Q1904.42 1518.83 1904.42 1515.81 Q1904.42 1512.76 1902.91 1511.01 Q1901.43 1509.26 1898.87 1509.26 M1906.41 1497.35 L1906.41 1500.82 Q1904.98 1500.14 1903.51 1499.78 Q1902.07 1499.42 1900.64 1499.42 Q1896.88 1499.42 1894.88 1501.96 Q1892.91 1504.5 1892.62 1509.64 Q1893.73 1508 1895.41 1507.13 Q1897.08 1506.25 1899.09 1506.25 Q1903.33 1506.25 1905.77 1508.83 Q1908.24 1511.39 1908.24 1515.81 Q1908.24 1520.13 1905.68 1522.75 Q1903.12 1525.36 1898.87 1525.36 Q1894 1525.36 1891.42 1521.64 Q1888.84 1517.89 1888.84 1510.8 Q1888.84 1504.14 1892 1500.19 Q1895.16 1496.23 1900.49 1496.23 Q1901.92 1496.23 1903.36 1496.51 Q1904.83 1496.79 1906.41 1497.35 Z" fill="#000000" fill-rule="evenodd" fill-opacity="1"></path><path clip-path="url(#clip600)" d="M2212.65 1535.81 Q2209.32 1535.81 2207.4 1537.6 Q2205.5 1539.38 2205.5 1542.5 Q2205.5 1545.63 2207.4 1547.41 Q2209.32 1549.19 2212.65 1549.19 Q2215.99 1549.19 2217.91 1547.41 Q2219.83 1545.6 2219.83 1542.5 Q2219.83 1539.38 2217.91 1537.6 Q2216.01 1535.81 2212.65 1535.81 M2207.98 1533.82 Q2204.97 1533.08 2203.28 1531.02 Q2201.61 1528.96 2201.61 1526 Q2201.61 1521.85 2204.55 1519.45 Q2207.52 1517.04 2212.65 1517.04 Q2217.82 1517.04 2220.76 1519.45 Q2223.7 1521.85 2223.7 1526 Q2223.7 1528.96 2222.01 1531.02 Q2220.34 1533.08 2217.35 1533.82 Q2220.73 1534.61 2222.61 1536.9 Q2224.51 1539.19 2224.51 1542.5 Q2224.51 1547.53 2221.43 1550.21 Q2218.37 1552.9 2212.65 1552.9 Q2206.94 1552.9 2203.86 1550.21 Q2200.8 1547.53 2200.8 1542.5 Q2200.8 1539.19 2202.7 1536.9 Q2204.6 1534.61 2207.98 1533.82 M2206.27 1526.44 Q2206.27 1529.12 2207.93 1530.63 Q2209.62 1532.13 2212.65 1532.13 Q2215.66 1532.13 2217.35 1530.63 Q2219.07 1529.12 2219.07 1526.44 Q2219.07 1523.75 2217.35 1522.25 Q2215.66 1520.74 2212.65 1520.74 Q2209.62 1520.74 2207.93 1522.25 Q2206.27 1523.75 2206.27 1526.44 Z" fill="#000000" fill-rule="evenodd" fill-opacity="1"></path><path clip-path="url(#clip600)" d="M2232.82 1546.35 L2237.7 1546.35 L2237.7 1552.22 L2232.82 1552.22 L2232.82 1546.35 Z" fill="#000000" fill-rule="evenodd" fill-opacity="1"></path><path clip-path="url(#clip600)" d="M2257.89 1520.74 Q2254.28 1520.74 2252.45 1524.31 Q2250.64 1527.85 2250.64 1534.98 Q2250.64 1542.09 2252.45 1545.65 Q2254.28 1549.19 2257.89 1549.19 Q2261.52 1549.19 2263.33 1545.65 Q2265.15 1542.09 2265.15 1534.98 Q2265.15 1527.85 2263.33 1524.31 Q2261.52 1520.74 2257.89 1520.74 M2257.89 1517.04 Q2263.7 1517.04 2266.75 1521.65 Q2269.83 1526.23 2269.83 1534.98 Q2269.83 1543.71 2266.75 1548.31 Q2263.7 1552.9 2257.89 1552.9 Q2252.08 1552.9 2249 1548.31 Q2245.94 1543.71 2245.94 1534.98 Q2245.94 1526.23 2249 1521.65 Q2252.08 1517.04 2257.89 1517.04 Z" fill="#000000" fill-rule="evenodd" fill-opacity="1"></path><path clip-path="url(#clip600)" d="M2306.22 1526.76 L2295.64 1537.39 L2306.22 1547.97 L2303.46 1550.77 L2292.84 1540.14 L2282.21 1550.77 L2279.48 1547.97 L2290.04 1537.39 L2279.48 1526.76 L2282.21 1523.96 L2292.84 1534.59 L2303.46 1523.96 L2306.22 1526.76 Z" fill="#000000" fill-rule="evenodd" fill-opacity="1"></path><path clip-path="url(#clip600)" d="M2318.58 1548.29 L2326.22 1548.29 L2326.22 1521.92 L2317.91 1523.59 L2317.91 1519.33 L2326.17 1517.66 L2330.85 1517.66 L2330.85 1548.29 L2338.49 1548.29 L2338.49 1552.22 L2318.58 1552.22 L2318.58 1548.29 Z" fill="#000000" fill-rule="evenodd" fill-opacity="1"></path><path clip-path="url(#clip600)" d="M2357.93 1520.74 Q2354.32 1520.74 2352.49 1524.31 Q2350.69 1527.85 2350.69 1534.98 Q2350.69 1542.09 2352.49 1545.65 Q2354.32 1549.19 2357.93 1549.19 Q2361.57 1549.19 2363.37 1545.65 Q2365.2 1542.09 2365.2 1534.98 Q2365.2 1527.85 2363.37 1524.31 Q2361.57 1520.74 2357.93 1520.74 M2357.93 1517.04 Q2363.74 1517.04 2366.8 1521.65 Q2369.88 1526.23 2369.88 1534.98 Q2369.88 1543.71 2366.8 1548.31 Q2363.74 1552.9 2357.93 1552.9 Q2352.12 1552.9 2349.04 1548.31 Q2345.99 1543.71 2345.99 1534.98 Q2345.99 1526.23 2349.04 1521.65 Q2352.12 1517.04 2357.93 1517.04 Z" fill="#000000" fill-rule="evenodd" fill-opacity="1"></path><path clip-path="url(#clip600)" d="M2379.9 1509.26 Q2377.34 1509.26 2375.84 1511.01 Q2374.35 1512.76 2374.35 1515.81 Q2374.35 1518.83 2375.84 1520.6 Q2377.34 1522.35 2379.9 1522.35 Q2382.46 1522.35 2383.94 1520.6 Q2385.45 1518.83 2385.45 1515.81 Q2385.45 1512.76 2383.94 1511.01 Q2382.46 1509.26 2379.9 1509.26 M2387.44 1497.35 L2387.44 1500.82 Q2386.01 1500.14 2384.55 1499.78 Q2383.1 1499.42 2381.67 1499.42 Q2377.91 1499.42 2375.91 1501.96 Q2373.94 1504.5 2373.66 1509.64 Q2374.77 1508 2376.44 1507.13 Q2378.11 1506.25 2380.13 1506.25 Q2384.36 1506.25 2386.8 1508.83 Q2389.27 1511.39 2389.27 1515.81 Q2389.27 1520.13 2386.71 1522.75 Q2384.15 1525.36 2379.9 1525.36 Q2375.03 1525.36 2372.45 1521.64 Q2369.88 1517.89 2369.88 1510.8 Q2369.88 1504.14 2373.04 1500.19 Q2376.2 1496.23 2381.52 1496.23 Q2382.95 1496.23 2384.4 1496.51 Q2385.86 1496.79 2387.44 1497.35 Z" fill="#000000" fill-rule="evenodd" fill-opacity="1"></path><polyline clip-path="url(#clip602)" style="stroke:#000000; stroke-linecap:round; stroke-linejoin:round; stroke-width:2; stroke-opacity:0.1; fill:none" points="
  313.373,1433.78 2352.76,1433.78 
  "></polyline>
<polyline clip-path="url(#clip602)" style="stroke:#000000; stroke-linecap:round; stroke-linejoin:round; stroke-width:2; stroke-opacity:0.1; fill:none" points="
  313.373,1097.24 2352.76,1097.24 
  "></polyline>
<polyline clip-path="url(#clip602)" style="stroke:#000000; stroke-linecap:round; stroke-linejoin:round; stroke-width:2; stroke-opacity:0.1; fill:none" points="
  313.373,760.704 2352.76,760.704 
  "></polyline>
<polyline clip-path="url(#clip602)" style="stroke:#000000; stroke-linecap:round; stroke-linejoin:round; stroke-width:2; stroke-opacity:0.1; fill:none" points="
  313.373,424.167 2352.76,424.167 
  "></polyline>
<polyline clip-path="url(#clip602)" style="stroke:#000000; stroke-linecap:round; stroke-linejoin:round; stroke-width:2; stroke-opacity:0.1; fill:none" points="
  313.373,87.6303 2352.76,87.6303 
  "></polyline>
<polyline clip-path="url(#clip600)" style="stroke:#000000; stroke-linecap:round; stroke-linejoin:round; stroke-width:4; stroke-opacity:1; fill:none" points="
  313.373,1474.16 313.373,47.2441 
  "></polyline>
<polyline clip-path="url(#clip600)" style="stroke:#000000; stroke-linecap:round; stroke-linejoin:round; stroke-width:4; stroke-opacity:1; fill:none" points="
  313.373,1433.78 332.27,1433.78 
  "></polyline>
<polyline clip-path="url(#clip600)" style="stroke:#000000; stroke-linecap:round; stroke-linejoin:round; stroke-width:4; stroke-opacity:1; fill:none" points="
  313.373,1097.24 332.27,1097.24 
  "></polyline>
<polyline clip-path="url(#clip600)" style="stroke:#000000; stroke-linecap:round; stroke-linejoin:round; stroke-width:4; stroke-opacity:1; fill:none" points="
  313.373,760.704 332.27,760.704 
  "></polyline>
<polyline clip-path="url(#clip600)" style="stroke:#000000; stroke-linecap:round; stroke-linejoin:round; stroke-width:4; stroke-opacity:1; fill:none" points="
  313.373,424.167 332.27,424.167 
  "></polyline>
<polyline clip-path="url(#clip600)" style="stroke:#000000; stroke-linecap:round; stroke-linejoin:round; stroke-width:4; stroke-opacity:1; fill:none" points="
  313.373,87.6303 332.27,87.6303 
  "></polyline>
<path clip-path="url(#clip600)" d="M50.9921 1440.68 L80.6679 1440.68 L80.6679 1444.61 L50.9921 1444.61 L50.9921 1440.68 Z" fill="#000000" fill-rule="evenodd" fill-opacity="1"></path><path clip-path="url(#clip600)" d="M103.608 1427.02 L91.8021 1445.47 L103.608 1445.47 L103.608 1427.02 M102.381 1422.95 L108.26 1422.95 L108.26 1445.47 L113.191 1445.47 L113.191 1449.36 L108.26 1449.36 L108.26 1457.51 L103.608 1457.51 L103.608 1449.36 L88.0058 1449.36 L88.0058 1444.84 L102.381 1422.95 Z" fill="#000000" fill-rule="evenodd" fill-opacity="1"></path><path clip-path="url(#clip600)" d="M120.922 1451.63 L125.807 1451.63 L125.807 1457.51 L120.922 1457.51 L120.922 1451.63 Z" fill="#000000" fill-rule="evenodd" fill-opacity="1"></path><path clip-path="url(#clip600)" d="M145.992 1426.02 Q142.381 1426.02 140.552 1429.59 Q138.746 1433.13 138.746 1440.26 Q138.746 1447.37 140.552 1450.93 Q142.381 1454.47 145.992 1454.47 Q149.626 1454.47 151.431 1450.93 Q153.26 1447.37 153.26 1440.26 Q153.26 1433.13 151.431 1429.59 Q149.626 1426.02 145.992 1426.02 M145.992 1422.32 Q151.802 1422.32 154.857 1426.93 Q157.936 1431.51 157.936 1440.26 Q157.936 1448.99 154.857 1453.59 Q151.802 1458.18 145.992 1458.18 Q140.181 1458.18 137.103 1453.59 Q134.047 1448.99 134.047 1440.26 Q134.047 1431.51 137.103 1426.93 Q140.181 1422.32 145.992 1422.32 Z" fill="#000000" fill-rule="evenodd" fill-opacity="1"></path><path clip-path="url(#clip600)" d="M194.325 1432.04 L183.746 1442.67 L194.325 1453.25 L191.57 1456.05 L180.945 1445.42 L170.32 1456.05 L167.589 1453.25 L178.144 1442.67 L167.589 1432.04 L170.32 1429.24 L180.945 1439.87 L191.57 1429.24 L194.325 1432.04 Z" fill="#000000" fill-rule="evenodd" fill-opacity="1"></path><path clip-path="url(#clip600)" d="M206.686 1453.57 L214.325 1453.57 L214.325 1427.21 L206.014 1428.87 L206.014 1424.61 L214.278 1422.95 L218.954 1422.95 L218.954 1453.57 L226.593 1453.57 L226.593 1457.51 L206.686 1457.51 L206.686 1453.57 Z" fill="#000000" fill-rule="evenodd" fill-opacity="1"></path><path clip-path="url(#clip600)" d="M246.037 1426.02 Q242.426 1426.02 240.598 1429.59 Q238.792 1433.13 238.792 1440.26 Q238.792 1447.37 240.598 1450.93 Q242.426 1454.47 246.037 1454.47 Q249.672 1454.47 251.477 1450.93 Q253.306 1447.37 253.306 1440.26 Q253.306 1433.13 251.477 1429.59 Q249.672 1426.02 246.037 1426.02 M246.037 1422.32 Q251.848 1422.32 254.903 1426.93 Q257.982 1431.51 257.982 1440.26 Q257.982 1448.99 254.903 1453.59 Q251.848 1458.18 246.037 1458.18 Q240.227 1458.18 237.149 1453.59 Q234.093 1448.99 234.093 1440.26 Q234.093 1431.51 237.149 1426.93 Q240.227 1422.32 246.037 1422.32 Z" fill="#000000" fill-rule="evenodd" fill-opacity="1"></path><path clip-path="url(#clip600)" d="M268.006 1414.54 Q265.448 1414.54 263.944 1416.29 Q262.458 1418.04 262.458 1421.09 Q262.458 1424.11 263.944 1425.88 Q265.448 1427.63 268.006 1427.63 Q270.564 1427.63 272.05 1425.88 Q273.555 1424.11 273.555 1421.09 Q273.555 1418.04 272.05 1416.29 Q270.564 1414.54 268.006 1414.54 M275.548 1402.64 L275.548 1406.1 Q274.119 1405.42 272.652 1405.06 Q271.204 1404.71 269.774 1404.71 Q266.013 1404.71 264.019 1407.24 Q262.044 1409.78 261.762 1414.92 Q262.872 1413.28 264.546 1412.42 Q266.22 1411.53 268.232 1411.53 Q272.464 1411.53 274.909 1414.11 Q277.373 1416.67 277.373 1421.09 Q277.373 1425.41 274.815 1428.03 Q272.257 1430.64 268.006 1430.64 Q263.135 1430.64 260.558 1426.92 Q257.982 1423.17 257.982 1416.08 Q257.982 1409.43 261.141 1405.48 Q264.301 1401.51 269.624 1401.51 Q271.053 1401.51 272.501 1401.79 Q273.968 1402.07 275.548 1402.64 Z" fill="#000000" fill-rule="evenodd" fill-opacity="1"></path><path clip-path="url(#clip600)" d="M50.9921 1104.14 L80.6679 1104.14 L80.6679 1108.08 L50.9921 1108.08 L50.9921 1104.14 Z" fill="#000000" fill-rule="evenodd" fill-opacity="1"></path><path clip-path="url(#clip600)" d="M94.7882 1117.03 L111.108 1117.03 L111.108 1120.97 L89.1632 1120.97 L89.1632 1117.03 Q91.8252 1114.28 96.4085 1109.65 Q101.015 1105 102.196 1103.65 Q104.441 1101.13 105.321 1099.4 Q106.223 1097.64 106.223 1095.95 Q106.223 1093.19 104.279 1091.46 Q102.358 1089.72 99.2558 1089.72 Q97.0567 1089.72 94.603 1090.48 Q92.1725 1091.25 89.3947 1092.8 L89.3947 1088.08 Q92.2188 1086.94 94.6724 1086.36 Q97.1261 1085.78 99.1632 1085.78 Q104.534 1085.78 107.728 1088.47 Q110.922 1091.15 110.922 1095.65 Q110.922 1097.77 110.112 1099.7 Q109.325 1101.59 107.219 1104.19 Q106.64 1104.86 103.538 1108.08 Q100.436 1111.27 94.7882 1117.03 Z" fill="#000000" fill-rule="evenodd" fill-opacity="1"></path><path clip-path="url(#clip600)" d="M120.922 1115.09 L125.807 1115.09 L125.807 1120.97 L120.922 1120.97 L120.922 1115.09 Z" fill="#000000" fill-rule="evenodd" fill-opacity="1"></path><path clip-path="url(#clip600)" d="M145.992 1089.49 Q142.381 1089.49 140.552 1093.05 Q138.746 1096.59 138.746 1103.72 Q138.746 1110.83 140.552 1114.39 Q142.381 1117.94 145.992 1117.94 Q149.626 1117.94 151.431 1114.39 Q153.26 1110.83 153.26 1103.72 Q153.26 1096.59 151.431 1093.05 Q149.626 1089.49 145.992 1089.49 M145.992 1085.78 Q151.802 1085.78 154.857 1090.39 Q157.936 1094.97 157.936 1103.72 Q157.936 1112.45 154.857 1117.06 Q151.802 1121.64 145.992 1121.64 Q140.181 1121.64 137.103 1117.06 Q134.047 1112.45 134.047 1103.72 Q134.047 1094.97 137.103 1090.39 Q140.181 1085.78 145.992 1085.78 Z" fill="#000000" fill-rule="evenodd" fill-opacity="1"></path><path clip-path="url(#clip600)" d="M194.325 1095.51 L183.746 1106.13 L194.325 1116.71 L191.57 1119.51 L180.945 1108.89 L170.32 1119.51 L167.589 1116.71 L178.144 1106.13 L167.589 1095.51 L170.32 1092.71 L180.945 1103.33 L191.57 1092.71 L194.325 1095.51 Z" fill="#000000" fill-rule="evenodd" fill-opacity="1"></path><path clip-path="url(#clip600)" d="M206.686 1117.03 L214.325 1117.03 L214.325 1090.67 L206.014 1092.33 L206.014 1088.08 L214.278 1086.41 L218.954 1086.41 L218.954 1117.03 L226.593 1117.03 L226.593 1120.97 L206.686 1120.97 L206.686 1117.03 Z" fill="#000000" fill-rule="evenodd" fill-opacity="1"></path><path clip-path="url(#clip600)" d="M246.037 1089.49 Q242.426 1089.49 240.598 1093.05 Q238.792 1096.59 238.792 1103.72 Q238.792 1110.83 240.598 1114.39 Q242.426 1117.94 246.037 1117.94 Q249.672 1117.94 251.477 1114.39 Q253.306 1110.83 253.306 1103.72 Q253.306 1096.59 251.477 1093.05 Q249.672 1089.49 246.037 1089.49 M246.037 1085.78 Q251.848 1085.78 254.903 1090.39 Q257.982 1094.97 257.982 1103.72 Q257.982 1112.45 254.903 1117.06 Q251.848 1121.64 246.037 1121.64 Q240.227 1121.64 237.149 1117.06 Q234.093 1112.45 234.093 1103.72 Q234.093 1094.97 237.149 1090.39 Q240.227 1085.78 246.037 1085.78 Z" fill="#000000" fill-rule="evenodd" fill-opacity="1"></path><path clip-path="url(#clip600)" d="M268.006 1078 Q265.448 1078 263.944 1079.75 Q262.458 1081.5 262.458 1084.55 Q262.458 1087.58 263.944 1089.35 Q265.448 1091.09 268.006 1091.09 Q270.564 1091.09 272.05 1089.35 Q273.555 1087.58 273.555 1084.55 Q273.555 1081.5 272.05 1079.75 Q270.564 1078 268.006 1078 M275.548 1066.1 L275.548 1069.56 Q274.119 1068.88 272.652 1068.53 Q271.204 1068.17 269.774 1068.17 Q266.013 1068.17 264.019 1070.71 Q262.044 1073.25 261.762 1078.38 Q262.872 1076.74 264.546 1075.88 Q266.22 1075 268.232 1075 Q272.464 1075 274.909 1077.57 Q277.373 1080.13 277.373 1084.55 Q277.373 1088.88 274.815 1091.49 Q272.257 1094.1 268.006 1094.1 Q263.135 1094.1 260.558 1090.38 Q257.982 1086.64 257.982 1079.55 Q257.982 1072.89 261.141 1068.94 Q264.301 1064.97 269.624 1064.97 Q271.053 1064.97 272.501 1065.25 Q273.968 1065.54 275.548 1066.1 Z" fill="#000000" fill-rule="evenodd" fill-opacity="1"></path><path clip-path="url(#clip600)" d="M265.428 746.503 Q261.817 746.503 259.988 750.068 Q258.183 753.61 258.183 760.739 Q258.183 767.846 259.988 771.41 Q261.817 774.952 265.428 774.952 Q269.062 774.952 270.868 771.41 Q272.697 767.846 272.697 760.739 Q272.697 753.61 270.868 750.068 Q269.062 746.503 265.428 746.503 M265.428 742.799 Q271.238 742.799 274.294 747.406 Q277.373 751.989 277.373 760.739 Q277.373 769.466 274.294 774.072 Q271.238 778.656 265.428 778.656 Q259.618 778.656 256.539 774.072 Q253.484 769.466 253.484 760.739 Q253.484 751.989 256.539 747.406 Q259.618 742.799 265.428 742.799 Z" fill="#000000" fill-rule="evenodd" fill-opacity="1"></path><path clip-path="url(#clip600)" d="M94.7882 443.96 L111.108 443.96 L111.108 447.895 L89.1632 447.895 L89.1632 443.96 Q91.8252 441.205 96.4085 436.576 Q101.015 431.923 102.196 430.58 Q104.441 428.057 105.321 426.321 Q106.223 424.562 106.223 422.872 Q106.223 420.117 104.279 418.381 Q102.358 416.645 99.2558 416.645 Q97.0567 416.645 94.603 417.409 Q92.1725 418.173 89.3947 419.724 L89.3947 415.002 Q92.2188 413.867 94.6724 413.289 Q97.1261 412.71 99.1632 412.71 Q104.534 412.71 107.728 415.395 Q110.922 418.08 110.922 422.571 Q110.922 424.701 110.112 426.622 Q109.325 428.52 107.219 431.113 Q106.64 431.784 103.538 435.002 Q100.436 438.196 94.7882 443.96 Z" fill="#000000" fill-rule="evenodd" fill-opacity="1"></path><path clip-path="url(#clip600)" d="M120.922 442.015 L125.807 442.015 L125.807 447.895 L120.922 447.895 L120.922 442.015 Z" fill="#000000" fill-rule="evenodd" fill-opacity="1"></path><path clip-path="url(#clip600)" d="M145.992 416.414 Q142.381 416.414 140.552 419.978 Q138.746 423.52 138.746 430.65 Q138.746 437.756 140.552 441.321 Q142.381 444.863 145.992 444.863 Q149.626 444.863 151.431 441.321 Q153.26 437.756 153.26 430.65 Q153.26 423.52 151.431 419.978 Q149.626 416.414 145.992 416.414 M145.992 412.71 Q151.802 412.71 154.857 417.316 Q157.936 421.9 157.936 430.65 Q157.936 439.376 154.857 443.983 Q151.802 448.566 145.992 448.566 Q140.181 448.566 137.103 443.983 Q134.047 439.376 134.047 430.65 Q134.047 421.9 137.103 417.316 Q140.181 412.71 145.992 412.71 Z" fill="#000000" fill-rule="evenodd" fill-opacity="1"></path><path clip-path="url(#clip600)" d="M194.325 422.432 L183.746 433.057 L194.325 443.636 L191.57 446.437 L180.945 435.812 L170.32 446.437 L167.589 443.636 L178.144 433.057 L167.589 422.432 L170.32 419.631 L180.945 430.256 L191.57 419.631 L194.325 422.432 Z" fill="#000000" fill-rule="evenodd" fill-opacity="1"></path><path clip-path="url(#clip600)" d="M206.686 443.96 L214.325 443.96 L214.325 417.594 L206.014 419.261 L206.014 415.002 L214.278 413.335 L218.954 413.335 L218.954 443.96 L226.593 443.96 L226.593 447.895 L206.686 447.895 L206.686 443.96 Z" fill="#000000" fill-rule="evenodd" fill-opacity="1"></path><path clip-path="url(#clip600)" d="M246.037 416.414 Q242.426 416.414 240.598 419.978 Q238.792 423.52 238.792 430.65 Q238.792 437.756 240.598 441.321 Q242.426 444.863 246.037 444.863 Q249.672 444.863 251.477 441.321 Q253.306 437.756 253.306 430.65 Q253.306 423.52 251.477 419.978 Q249.672 416.414 246.037 416.414 M246.037 412.71 Q251.848 412.71 254.903 417.316 Q257.982 421.9 257.982 430.65 Q257.982 439.376 254.903 443.983 Q251.848 448.566 246.037 448.566 Q240.227 448.566 237.149 443.983 Q234.093 439.376 234.093 430.65 Q234.093 421.9 237.149 417.316 Q240.227 412.71 246.037 412.71 Z" fill="#000000" fill-rule="evenodd" fill-opacity="1"></path><path clip-path="url(#clip600)" d="M268.006 404.931 Q265.448 404.931 263.944 406.68 Q262.458 408.429 262.458 411.476 Q262.458 414.504 263.944 416.272 Q265.448 418.021 268.006 418.021 Q270.564 418.021 272.05 416.272 Q273.555 414.504 273.555 411.476 Q273.555 408.429 272.05 406.68 Q270.564 404.931 268.006 404.931 M275.548 393.025 L275.548 396.486 Q274.119 395.809 272.652 395.451 Q271.204 395.094 269.774 395.094 Q266.013 395.094 264.019 397.633 Q262.044 400.172 261.762 405.307 Q262.872 403.67 264.546 402.805 Q266.22 401.921 268.232 401.921 Q272.464 401.921 274.909 404.498 Q277.373 407.056 277.373 411.476 Q277.373 415.801 274.815 418.416 Q272.257 421.03 268.006 421.03 Q263.135 421.03 260.558 417.306 Q257.982 413.563 257.982 406.473 Q257.982 399.815 261.141 395.865 Q264.301 391.897 269.624 391.897 Q271.053 391.897 272.501 392.179 Q273.968 392.461 275.548 393.025 Z" fill="#000000" fill-rule="evenodd" fill-opacity="1"></path><path clip-path="url(#clip600)" d="M103.608 80.872 L91.8021 99.3209 L103.608 99.3209 L103.608 80.872 M102.381 76.7979 L108.26 76.7979 L108.26 99.3209 L113.191 99.3209 L113.191 103.21 L108.26 103.21 L108.26 111.358 L103.608 111.358 L103.608 103.21 L88.0058 103.21 L88.0058 98.696 L102.381 76.7979 Z" fill="#000000" fill-rule="evenodd" fill-opacity="1"></path><path clip-path="url(#clip600)" d="M120.922 105.478 L125.807 105.478 L125.807 111.358 L120.922 111.358 L120.922 105.478 Z" fill="#000000" fill-rule="evenodd" fill-opacity="1"></path><path clip-path="url(#clip600)" d="M145.992 79.8766 Q142.381 79.8766 140.552 83.4414 Q138.746 86.9831 138.746 94.1126 Q138.746 101.219 140.552 104.784 Q142.381 108.326 145.992 108.326 Q149.626 108.326 151.431 104.784 Q153.26 101.219 153.26 94.1126 Q153.26 86.9831 151.431 83.4414 Q149.626 79.8766 145.992 79.8766 M145.992 76.1729 Q151.802 76.1729 154.857 80.7794 Q157.936 85.3627 157.936 94.1126 Q157.936 102.839 154.857 107.446 Q151.802 112.029 145.992 112.029 Q140.181 112.029 137.103 107.446 Q134.047 102.839 134.047 94.1126 Q134.047 85.3627 137.103 80.7794 Q140.181 76.1729 145.992 76.1729 Z" fill="#000000" fill-rule="evenodd" fill-opacity="1"></path><path clip-path="url(#clip600)" d="M194.325 85.8951 L183.746 96.52 L194.325 107.099 L191.57 109.9 L180.945 99.2747 L170.32 109.9 L167.589 107.099 L178.144 96.52 L167.589 85.8951 L170.32 83.0942 L180.945 93.7191 L191.57 83.0942 L194.325 85.8951 Z" fill="#000000" fill-rule="evenodd" fill-opacity="1"></path><path clip-path="url(#clip600)" d="M206.686 107.423 L214.325 107.423 L214.325 81.0572 L206.014 82.7238 L206.014 78.4646 L214.278 76.7979 L218.954 76.7979 L218.954 107.423 L226.593 107.423 L226.593 111.358 L206.686 111.358 L206.686 107.423 Z" fill="#000000" fill-rule="evenodd" fill-opacity="1"></path><path clip-path="url(#clip600)" d="M246.037 79.8766 Q242.426 79.8766 240.598 83.4414 Q238.792 86.9831 238.792 94.1126 Q238.792 101.219 240.598 104.784 Q242.426 108.326 246.037 108.326 Q249.672 108.326 251.477 104.784 Q253.306 101.219 253.306 94.1126 Q253.306 86.9831 251.477 83.4414 Q249.672 79.8766 246.037 79.8766 M246.037 76.1729 Q251.848 76.1729 254.903 80.7794 Q257.982 85.3627 257.982 94.1126 Q257.982 102.839 254.903 107.446 Q251.848 112.029 246.037 112.029 Q240.227 112.029 237.149 107.446 Q234.093 102.839 234.093 94.1126 Q234.093 85.3627 237.149 80.7794 Q240.227 76.1729 246.037 76.1729 Z" fill="#000000" fill-rule="evenodd" fill-opacity="1"></path><path clip-path="url(#clip600)" d="M268.006 68.3935 Q265.448 68.3935 263.944 70.1426 Q262.458 71.8917 262.458 74.9386 Q262.458 77.9667 263.944 79.7346 Q265.448 81.4837 268.006 81.4837 Q270.564 81.4837 272.05 79.7346 Q273.555 77.9667 273.555 74.9386 Q273.555 71.8917 272.05 70.1426 Q270.564 68.3935 268.006 68.3935 M275.548 56.4882 L275.548 59.9488 Q274.119 59.2717 272.652 58.9144 Q271.204 58.557 269.774 58.557 Q266.013 58.557 264.019 61.0961 Q262.044 63.6351 261.762 68.7697 Q262.872 67.1334 264.546 66.2682 Q266.22 65.3843 268.232 65.3843 Q272.464 65.3843 274.909 67.9609 Q277.373 70.5188 277.373 74.9386 Q277.373 79.2644 274.815 81.8787 Q272.257 84.4929 268.006 84.4929 Q263.135 84.4929 260.558 80.769 Q257.982 77.0263 257.982 69.9357 Q257.982 63.2778 261.141 59.3282 Q264.301 55.3597 269.624 55.3597 Q271.053 55.3597 272.501 55.6418 Q273.968 55.9239 275.548 56.4882 Z" fill="#000000" fill-rule="evenodd" fill-opacity="1"></path><polyline clip-path="url(#clip602)" style="stroke:#009af9; stroke-linecap:round; stroke-linejoin:round; stroke-width:4; stroke-opacity:1; fill:none" points="
  371.091,1433.78 2295.04,87.6286 
  "></polyline>
<path clip-path="url(#clip602)" d="
M371.093 1433.78 L402.204 1433.78 L402.204 87.6303 L371.093 87.6303 L371.093 1433.78  Z
  " fill="#e26f46" fill-rule="evenodd" fill-opacity="0.5"></path>
<polyline clip-path="url(#clip602)" style="stroke:#000000; stroke-linecap:round; stroke-linejoin:round; stroke-width:4; stroke-opacity:0.5; fill:none" points="
  371.093,1433.78 402.204,1433.78 402.204,87.6303 371.093,87.6303 371.093,1433.78 
  "></polyline>
<path clip-path="url(#clip602)" d="
M402.204 731.477 L473.561 731.477 L473.561 87.6303 L402.204 87.6303 L402.204 731.477  Z
  " fill="#3da44d" fill-rule="evenodd" fill-opacity="0.5"></path>
<polyline clip-path="url(#clip602)" style="stroke:#000000; stroke-linecap:round; stroke-linejoin:round; stroke-width:4; stroke-opacity:0.5; fill:none" points="
  402.204,731.477 473.561,731.477 473.561,87.6303 402.204,87.6303 402.204,731.477 
  "></polyline>
<path clip-path="url(#clip602)" d="
M473.561 731.477 L527.825 731.477 L527.825 691.537 L473.561 691.537 L473.561 731.477  Z
  " fill="#c271d2" fill-rule="evenodd" fill-opacity="0.5"></path>
<polyline clip-path="url(#clip602)" style="stroke:#000000; stroke-linecap:round; stroke-linejoin:round; stroke-width:4; stroke-opacity:0.5; fill:none" points="
  473.561,731.477 527.825,731.477 527.825,691.537 473.561,691.537 473.561,731.477 
  "></polyline>
<path clip-path="url(#clip602)" d="
M1467.62 426.97 L1499.88 426.97 L1499.88 407.694 L1467.62 407.694 L1467.62 426.97  Z
  " fill="#ac8d18" fill-rule="evenodd" fill-opacity="0.5"></path>
<polyline clip-path="url(#clip602)" style="stroke:#000000; stroke-linecap:round; stroke-linejoin:round; stroke-width:4; stroke-opacity:0.5; fill:none" points="
  1467.62,426.97 1499.88,426.97 1499.88,407.694 1467.62,407.694 1467.62,426.97 
  "></polyline>
<path clip-path="url(#clip602)" d="
M1955.9 745.454 L1955.9 745.454 L1955.9 745.454 L1955.9 745.454 L1955.9 745.454  Z
  " fill="#00a9ad" fill-rule="evenodd" fill-opacity="0.5"></path>
<polyline clip-path="url(#clip602)" style="stroke:#000000; stroke-linecap:round; stroke-linejoin:round; stroke-width:4; stroke-opacity:0.5; fill:none" points="
  1955.9,745.454 1955.9,745.454 
  "></polyline>
</svg>